<svg width="39" height="40" viewBox="0 0 39 40" fill="none" xmlns="http://www.w3.org/2000/svg">
<path d="M12.6057 25.4166L12.6057 14.5833C12.5822 14.3312 12.6145 14.077 12.7004 13.8389C12.7863 13.6007 12.9237 13.3844 13.1027 13.2054C13.2818 13.0263 13.4981 12.889 13.7362 12.8031C13.9744 12.7172 14.2286 12.6848 14.4807 12.7083L25.1057 12.7083C25.3578 12.6848 25.612 12.7172 25.8502 12.8031C26.0884 12.889 26.3046 13.0263 26.4837 13.2054C26.6627 13.3844 26.8001 13.6007 26.886 13.8389C26.9719 14.077 27.0043 14.3312 26.9807 14.5833L26.9807 25.4166C27.0043 25.6687 26.9719 25.9229 26.886 26.1611C26.8001 26.3992 26.6627 26.6155 26.4837 26.7946C26.3046 26.9736 26.0884 27.111 25.8502 27.1969C25.612 27.2828 25.3578 27.3152 25.1057 27.2916L14.4807 27.2916C14.2286 27.3152 13.9744 27.2828 13.7362 27.1969C13.4981 27.111 13.2818 26.9736 13.1027 26.7946C12.9237 26.6155 12.7863 26.3992 12.7004 26.1611C12.6145 25.9229 12.5822 25.6687 12.6057 25.4166ZM25.7307 14.5833C25.7307 14.0925 25.5966 13.9583 25.1057 13.9583L14.4807 13.9583C13.9898 13.9583 13.8557 14.0925 13.8557 14.5833L13.8557 25.4166C13.8557 25.9075 13.9898 26.0416 14.4807 26.0416L25.1057 26.0416C25.5966 26.0416 25.7307 25.9075 25.7307 25.4166L25.7307 14.5833Z" fill="black"/>
</svg>
