<svg width="15" height="16" viewBox="0 0 15 16" fill="none" xmlns="http://www.w3.org/2000/svg">
<path d="M0.605664 13.4166L0.605664 2.58331C0.582155 2.33121 0.614508 2.07704 0.700422 1.83887C0.786337 1.6007 0.923699 1.38441 1.10273 1.20538C1.28176 1.02634 1.49806 0.888982 1.73623 0.803067C1.97439 0.717153 2.22857 0.684799 2.48066 0.708308L13.1057 0.708309C13.3578 0.684799 13.612 0.717153 13.8502 0.803067C14.0884 0.888982 14.3046 1.02634 14.4837 1.20538C14.6627 1.38441 14.8001 1.6007 14.886 1.83887C14.9719 2.07704 15.0043 2.33121 14.9807 2.58331L14.9807 13.4166C15.0043 13.6687 14.9719 13.9229 14.886 14.1611C14.8001 14.3992 14.6627 14.6155 14.4837 14.7946C14.3046 14.9736 14.0884 15.111 13.8502 15.1969C13.612 15.2828 13.3578 15.3152 13.1057 15.2916L2.48066 15.2916C2.22857 15.3152 1.97439 15.2828 1.73622 15.1969C1.49806 15.111 1.28176 14.9736 1.10273 14.7946C0.923698 14.6155 0.786336 14.3992 0.700422 14.1611C0.614507 13.9229 0.582154 13.6687 0.605664 13.4166ZM13.7307 2.58331C13.7307 2.09248 13.5966 1.95831 13.1057 1.95831L2.48066 1.95831C1.98983 1.95831 1.85566 2.09248 1.85566 2.58331L1.85566 13.4166C1.85566 13.9075 1.98983 14.0416 2.48066 14.0416L13.1057 14.0416C13.5966 14.0416 13.7307 13.9075 13.7307 13.4166L13.7307 2.58331Z" fill="black"/>
</svg>
