<svg width="40" height="40" viewBox="0 0 40 40" fill="none" xmlns="http://www.w3.org/2000/svg">
<path d="M30 3.75H10C6.55375 3.75 3.75 6.55375 3.75 10V30C3.75 33.4463 6.55375 36.25 10 36.25H30C33.4463 36.25 36.25 33.4463 36.25 30V10C36.25 6.55375 33.4463 3.75 30 3.75ZM20.0037 9.7825C22.7612 9.7825 25.0037 12.025 25.0037 14.7825C25.0037 17.54 22.7612 19.7825 20.0037 19.7825C17.2463 19.7825 15.0037 17.54 15.0037 14.7825C15.0037 12.025 17.2463 9.7825 20.0037 9.7825ZM27.5 30.6525H12.5C11.8088 30.6525 11.25 30.0925 11.25 29.4025C11.25 24.5775 15.1763 20.6525 20 20.6525C24.8237 20.6525 28.75 24.5775 28.75 29.4025C28.75 30.0925 28.1912 30.6525 27.5 30.6525Z" fill="#4EC1B6"/>
</svg>
