<svg width="40" height="40" viewBox="0 0 40 40" fill="none" xmlns="http://www.w3.org/2000/svg">
<path d="M20.0003 23.3334C20.917 23.3334 21.702 23.0067 22.3553 22.3534C23.0075 21.7012 23.3337 20.9167 23.3337 20C23.3337 19.0834 23.0075 18.2984 22.3553 17.645C21.702 16.9928 20.917 16.6667 20.0003 16.6667C19.0837 16.6667 18.2992 16.9928 17.647 17.645C16.9937 18.2984 16.667 19.0834 16.667 20C16.667 20.9167 16.9937 21.7012 17.647 22.3534C18.2992 23.0067 19.0837 23.3334 20.0003 23.3334ZM13.3337 30H26.667V29.0417C26.667 28.375 26.4864 27.7639 26.1253 27.2084C25.7642 26.6528 25.2642 26.2362 24.6253 25.9584C23.9031 25.6528 23.1603 25.4167 22.397 25.25C21.6325 25.0834 20.8337 25 20.0003 25C19.167 25 18.3681 25.0834 17.6037 25.25C16.8403 25.4167 16.0975 25.6528 15.3753 25.9584C14.7364 26.2362 14.2364 26.6528 13.8753 27.2084C13.5142 27.7639 13.3337 28.375 13.3337 29.0417V30ZM30.0003 36.6667H10.0003C9.08366 36.6667 8.29921 36.3406 7.64699 35.6884C6.99366 35.035 6.66699 34.25 6.66699 33.3334V6.66671C6.66699 5.75004 6.99366 4.96504 7.64699 4.31171C8.29921 3.65948 9.08366 3.33337 10.0003 3.33337H21.9587C22.4031 3.33337 22.827 3.41671 23.2303 3.58337C23.6325 3.75004 23.9864 3.98615 24.292 4.29171L32.3753 12.375C32.6809 12.6806 32.917 13.0345 33.0837 13.4367C33.2503 13.84 33.3337 14.2639 33.3337 14.7084V33.3334C33.3337 34.25 33.0075 35.035 32.3553 35.6884C31.702 36.3406 30.917 36.6667 30.0003 36.6667Z" fill="#FCB53C"/>
</svg>
