<svg width="40" height="40" viewBox="0 0 40 40" fill="none" xmlns="http://www.w3.org/2000/svg">
<rect x="4" y="4" width="32" height="32" rx="4" fill="#7C725F"/>
<path d="M15.9998 21.8333C15.9998 22.2935 16.3729 22.6666 16.8332 22.6666H21.8332C22.2934 22.6666 22.6665 22.2935 22.6665 21.8333C22.6665 21.3731 22.2934 21 21.8332 21H16.8332C16.3729 21 15.9998 21.3731 15.9998 21.8333ZM15.9998 19.3333C15.9998 19.7935 16.3729 20.1666 16.8332 20.1666H25.1665C25.6267 20.1666 25.9998 19.7935 25.9998 19.3333C25.9998 18.8731 25.6267 18.5 25.1665 18.5H16.8332C16.3729 18.5 15.9998 18.8731 15.9998 19.3333ZM15.9998 16.8333C15.9998 17.2935 16.3729 17.6666 16.8332 17.6666H25.1665C25.6267 17.6666 25.9998 17.2935 25.9998 16.8333C25.9998 16.3731 25.6267 16 25.1665 16H16.8332C16.3729 16 15.9998 16.3731 15.9998 16.8333ZM14.3736 27.6262C13.7436 28.2562 12.6665 27.81 12.6665 26.9191V14.3333C12.6665 13.875 12.8298 13.4825 13.1565 13.1558C13.4826 12.8297 13.8748 12.6666 14.3332 12.6666H27.6665C28.1248 12.6666 28.5173 12.8297 28.844 13.1558C29.1701 13.4825 29.3332 13.875 29.3332 14.3333V24.3333C29.3332 24.7916 29.1701 25.1841 28.844 25.5108C28.5173 25.8369 28.1248 26 27.6665 26H16.4141C16.1488 26 15.8945 26.1053 15.7069 26.2929L14.3736 27.6262Z" fill="white"/>
</svg>
