<svg width="40" height="40" viewBox="0 0 40 40" fill="none" xmlns="http://www.w3.org/2000/svg">
<path d="M8.33333 35C7.41667 35 6.63167 34.6739 5.97833 34.0217C5.32611 33.3683 5 32.5833 5 31.6667V8.33333C5 7.41667 5.32611 6.63167 5.97833 5.97833C6.63167 5.32611 7.41667 5 8.33333 5H31.6667C32.5833 5 33.3683 5.32611 34.0217 5.97833C34.6739 6.63167 35 7.41667 35 8.33333V31.6667C35 32.5833 34.6739 33.3683 34.0217 34.0217C33.3683 34.6739 32.5833 35 31.6667 35H8.33333ZM17.6667 26.2917C17.8889 26.2917 18.0972 26.2572 18.2917 26.1883C18.4861 26.1183 18.6667 26 18.8333 25.8333L28.2917 16.375C28.5972 16.0694 28.75 15.6944 28.75 15.25C28.75 14.8056 28.5833 14.4167 28.25 14.0833C27.9444 13.7778 27.5556 13.625 27.0833 13.625C26.6111 13.625 26.2222 13.7778 25.9167 14.0833L17.6667 22.3333L14.0417 18.7083C13.7361 18.4028 13.3611 18.25 12.9167 18.25C12.4722 18.25 12.0833 18.4167 11.75 18.75C11.4444 19.0556 11.2917 19.4444 11.2917 19.9167C11.2917 20.3889 11.4444 20.7778 11.75 21.0833L16.5 25.8333C16.6667 26 16.8472 26.1183 17.0417 26.1883C17.2361 26.2572 17.4444 26.2917 17.6667 26.2917Z" fill="#4EC1B6"/>
</svg>
