<svg width="15" height="16" viewBox="0 0 15 16" fill="none" xmlns="http://www.w3.org/2000/svg">
<path d="M8.34076 13.4166L8.34076 2.58331C8.31725 2.33121 8.34961 2.07704 8.43552 1.83887C8.52144 1.6007 8.6588 1.38441 8.83783 1.20538C9.01686 1.02634 9.23316 0.888982 9.47133 0.803067C9.70949 0.717153 9.96367 0.684799 10.2158 0.708308L12.7158 0.708309C12.9679 0.684799 13.222 0.717153 13.4602 0.803067C13.6984 0.888982 13.9147 1.02634 14.0937 1.20538C14.2727 1.38441 14.4101 1.6007 14.496 1.83887C14.5819 2.07704 14.6143 2.33121 14.5908 2.58331L14.5908 13.4166C14.6143 13.6687 14.5819 13.9229 14.496 14.1611C14.4101 14.3992 14.2727 14.6155 14.0937 14.7946C13.9147 14.9736 13.6984 15.111 13.4602 15.1969C13.222 15.2828 12.9679 15.3152 12.7158 15.2916L10.2158 15.2916C9.96367 15.3152 9.70949 15.2828 9.47133 15.1969C9.23316 15.111 9.01686 14.9736 8.83783 14.7946C8.6588 14.6155 8.52144 14.3992 8.43552 14.1611C8.34961 13.9229 8.31725 13.6687 8.34076 13.4166V13.4166ZM13.3408 2.58331C13.3408 2.09248 13.2066 1.95831 12.7158 1.95831L10.2158 1.95831C9.72493 1.95831 9.59076 2.09248 9.59076 2.58331L9.59076 13.4166C9.59076 13.9075 9.72493 14.0416 10.2158 14.0416L12.7158 14.0416C13.2066 14.0416 13.3408 13.9075 13.3408 13.4166L13.3408 2.58331ZM0.00743019 13.4166L0.00743066 2.58331C-0.016079 2.33121 0.0162748 2.07704 0.102189 1.83887C0.188104 1.6007 0.325466 1.38441 0.504497 1.20537C0.683528 1.02634 0.899826 0.888981 1.13799 0.803067C1.37616 0.717152 1.63034 0.684798 1.88243 0.708308L4.38243 0.708308C4.63453 0.684799 4.8887 0.717153 5.12687 0.803067C5.36503 0.888982 5.58133 1.02634 5.76036 1.20538C5.93939 1.38441 6.07676 1.6007 6.16267 1.83887C6.24859 2.07704 6.28094 2.33121 6.25743 2.58331L6.25743 13.4166C6.28094 13.6687 6.24859 13.9229 6.16267 14.1611C6.07676 14.3992 5.93939 14.6155 5.76036 14.7946C5.58133 14.9736 5.36503 15.111 5.12687 15.1969C4.8887 15.2828 4.63452 15.3152 4.38243 15.2916L1.88243 15.2916C1.63034 15.3152 1.37616 15.2828 1.13799 15.1969C0.899826 15.111 0.683528 14.9736 0.504496 14.7946C0.325465 14.6155 0.188103 14.3992 0.102189 14.1611C0.0162743 13.9229 -0.0160795 13.6687 0.00743019 13.4166ZM5.00743 2.58331C5.00743 2.09247 4.87326 1.95831 4.38243 1.95831L1.88243 1.95831C1.3916 1.95831 1.25743 2.09247 1.25743 2.58331L1.25743 13.4166C1.25743 13.9075 1.3916 14.0416 1.88243 14.0416L4.38243 14.0416C4.87326 14.0416 5.00743 13.9075 5.00743 13.4166L5.00743 2.58331Z" fill="white"/>
</svg>
