<svg width="39" height="40" viewBox="0 0 39 40" fill="none" xmlns="http://www.w3.org/2000/svg">
<rect x="38.5982" y="0.700867" width="38.5982" height="38.5982" rx="6" transform="rotate(90 38.5982 0.700867)" fill="white"/>
<path d="M20.3408 25.4166L20.3408 14.5833C20.3173 14.3312 20.3496 14.077 20.4355 13.8389C20.5214 13.6007 20.6588 13.3844 20.8378 13.2054C21.0169 13.0263 21.2332 12.889 21.4713 12.8031C21.7095 12.7172 21.9637 12.6848 22.2158 12.7083L24.7158 12.7083C24.9679 12.6848 25.222 12.7172 25.4602 12.8031C25.6984 12.889 25.9147 13.0263 26.0937 13.2054C26.2727 13.3844 26.4101 13.6007 26.496 13.8389C26.5819 14.077 26.6143 14.3312 26.5908 14.5833L26.5908 25.4166C26.6143 25.6687 26.5819 25.9229 26.496 26.1611C26.4101 26.3992 26.2727 26.6155 26.0937 26.7946C25.9147 26.9736 25.6984 27.111 25.4602 27.1969C25.222 27.2828 24.9679 27.3152 24.7158 27.2916L22.2158 27.2916C21.9637 27.3152 21.7095 27.2828 21.4713 27.1969C21.2332 27.111 21.0169 26.9736 20.8378 26.7946C20.6588 26.6155 20.5214 26.3992 20.4355 26.1611C20.3496 25.9229 20.3173 25.6687 20.3408 25.4166ZM25.3408 14.5833C25.3408 14.0925 25.2066 13.9583 24.7158 13.9583L22.2158 13.9583C21.7249 13.9583 21.5908 14.0925 21.5908 14.5833L21.5908 25.4166C21.5908 25.9075 21.7249 26.0416 22.2158 26.0416L24.7158 26.0416C25.2066 26.0416 25.3408 25.9075 25.3408 25.4166L25.3408 14.5833ZM12.0074 25.4166L12.0074 14.5833C11.9839 14.3312 12.0163 14.077 12.1022 13.8389C12.1881 13.6007 12.3255 13.3844 12.5045 13.2054C12.6835 13.0263 12.8998 12.889 13.138 12.8031C13.3762 12.7172 13.6303 12.6848 13.8824 12.7083L16.3824 12.7083C16.6345 12.6848 16.8887 12.7172 17.1269 12.8031C17.365 12.889 17.5813 13.0263 17.7604 13.2054C17.9394 13.3844 18.0768 13.6007 18.1627 13.8389C18.2486 14.077 18.2809 14.3312 18.2574 14.5833L18.2574 25.4166C18.2809 25.6687 18.2486 25.9229 18.1627 26.1611C18.0768 26.3992 17.9394 26.6155 17.7604 26.7946C17.5813 26.9736 17.365 27.111 17.1269 27.1969C16.8887 27.2828 16.6345 27.3152 16.3824 27.2916L13.8824 27.2916C13.6303 27.3152 13.3762 27.2828 13.138 27.1969C12.8998 27.111 12.6835 26.9736 12.5045 26.7946C12.3255 26.6155 12.1881 26.3992 12.1022 26.1611C12.0163 25.9229 11.9839 25.6687 12.0074 25.4166ZM17.0074 14.5833C17.0074 14.0925 16.8733 13.9583 16.3824 13.9583L13.8824 13.9583C13.3916 13.9583 13.2574 14.0925 13.2574 14.5833L13.2574 25.4166C13.2574 25.9075 13.3916 26.0416 13.8824 26.0416L16.3824 26.0416C16.8733 26.0416 17.0074 25.9075 17.0074 25.4166L17.0074 14.5833Z" fill="black"/>
</svg>
